<mxfile host="app.diagrams.net" modified="2023-11-28T20:31:16.011Z" agent="Mozilla/5.0 (Windows NT 10.0; Win64; x64) AppleWebKit/537.36 (KHTML, like Gecko) Chrome/119.0.0.0 Safari/537.36" etag="0RKHh0DSvXbaqygNZAQm" version="22.1.4" type="github">
  <diagram name="Seite-1" id="2JOwtT9A2yt5OOmGQS--">
    <mxGraphModel dx="1434" dy="782" grid="1" gridSize="10" guides="1" tooltips="1" connect="1" arrows="1" fold="1" page="1" pageScale="1" pageWidth="1169" pageHeight="827" math="0" shadow="0">
      <root>
        <mxCell id="0" />
        <mxCell id="1" parent="0" />
        <mxCell id="fI4TgQmks6pxzs4s7WWF-3" value="" style="swimlane;startSize=0;" parent="1" vertex="1">
          <mxGeometry x="400" y="80" width="440" height="640" as="geometry" />
        </mxCell>
        <mxCell id="fI4TgQmks6pxzs4s7WWF-11" value="Einloggen" style="ellipse;whiteSpace=wrap;html=1;" parent="fI4TgQmks6pxzs4s7WWF-3" vertex="1">
          <mxGeometry x="40" y="235" width="140" height="70" as="geometry" />
        </mxCell>
        <mxCell id="SzQzMrN-KdYhucgNmKku-21" style="edgeStyle=none;rounded=0;orthogonalLoop=1;jettySize=auto;html=1;exitX=1;exitY=1;exitDx=0;exitDy=0;entryX=0;entryY=0.5;entryDx=0;entryDy=0;endArrow=classicThin;endFill=1;" edge="1" parent="fI4TgQmks6pxzs4s7WWF-3" source="fI4TgQmks6pxzs4s7WWF-10" target="SzQzMrN-KdYhucgNmKku-20">
          <mxGeometry relative="1" as="geometry" />
        </mxCell>
        <mxCell id="SzQzMrN-KdYhucgNmKku-42" value="&amp;lt;&amp;lt;includes&amp;gt;&amp;gt;" style="edgeLabel;html=1;align=center;verticalAlign=middle;resizable=0;points=[];rotation=15;" vertex="1" connectable="0" parent="SzQzMrN-KdYhucgNmKku-21">
          <mxGeometry x="-0.1815" y="-2" relative="1" as="geometry">
            <mxPoint x="18" y="-10" as="offset" />
          </mxGeometry>
        </mxCell>
        <mxCell id="fI4TgQmks6pxzs4s7WWF-13" value="Skills verwalten" style="ellipse;whiteSpace=wrap;html=1;" parent="fI4TgQmks6pxzs4s7WWF-3" vertex="1">
          <mxGeometry x="40" y="60" width="140" height="70" as="geometry" />
        </mxCell>
        <mxCell id="SzQzMrN-KdYhucgNmKku-5" style="edgeStyle=none;rounded=0;orthogonalLoop=1;jettySize=auto;html=1;endArrow=classicThin;endFill=1;entryX=0;entryY=0.5;entryDx=0;entryDy=0;" edge="1" parent="fI4TgQmks6pxzs4s7WWF-3" target="fI4TgQmks6pxzs4s7WWF-13">
          <mxGeometry relative="1" as="geometry">
            <mxPoint x="-80" y="110" as="sourcePoint" />
            <mxPoint x="-90" y="20" as="targetPoint" />
          </mxGeometry>
        </mxCell>
        <mxCell id="SzQzMrN-KdYhucgNmKku-7" value="Projektausschreibung&lt;br&gt;aufgeben" style="ellipse;whiteSpace=wrap;html=1;" vertex="1" parent="fI4TgQmks6pxzs4s7WWF-3">
          <mxGeometry x="40" y="410" width="140" height="70" as="geometry" />
        </mxCell>
        <mxCell id="SzQzMrN-KdYhucgNmKku-9" value="Suchanfrage&lt;br&gt;aufgaben" style="ellipse;whiteSpace=wrap;html=1;" vertex="1" parent="fI4TgQmks6pxzs4s7WWF-3">
          <mxGeometry x="40" y="320" width="140" height="70" as="geometry" />
        </mxCell>
        <mxCell id="SzQzMrN-KdYhucgNmKku-11" value="Use Case" style="ellipse;whiteSpace=wrap;html=1;" vertex="1" parent="fI4TgQmks6pxzs4s7WWF-3">
          <mxGeometry x="40" y="500" width="140" height="70" as="geometry" />
        </mxCell>
        <mxCell id="SzQzMrN-KdYhucgNmKku-45" style="edgeStyle=none;rounded=0;orthogonalLoop=1;jettySize=auto;html=1;exitX=0;exitY=0.5;exitDx=0;exitDy=0;endArrow=none;endFill=0;" edge="1" parent="fI4TgQmks6pxzs4s7WWF-3" source="fI4TgQmks6pxzs4s7WWF-10">
          <mxGeometry relative="1" as="geometry">
            <mxPoint x="-210" y="260" as="targetPoint" />
          </mxGeometry>
        </mxCell>
        <mxCell id="fI4TgQmks6pxzs4s7WWF-10" value="Registrieren" style="ellipse;whiteSpace=wrap;html=1;" parent="fI4TgQmks6pxzs4s7WWF-3" vertex="1">
          <mxGeometry x="40" y="150" width="140" height="70" as="geometry" />
        </mxCell>
        <mxCell id="SzQzMrN-KdYhucgNmKku-17" value="&lt;b&gt;Coll@HBRS Verwaltungssystem&lt;/b&gt;" style="text;html=1;align=center;verticalAlign=middle;resizable=0;points=[];autosize=1;strokeColor=none;fillColor=none;" vertex="1" parent="fI4TgQmks6pxzs4s7WWF-3">
          <mxGeometry x="115" width="210" height="30" as="geometry" />
        </mxCell>
        <mxCell id="SzQzMrN-KdYhucgNmKku-20" value="Benutzerprofil&lt;br&gt;anlegen" style="ellipse;whiteSpace=wrap;html=1;" vertex="1" parent="fI4TgQmks6pxzs4s7WWF-3">
          <mxGeometry x="250" y="200" width="140" height="70" as="geometry" />
        </mxCell>
        <mxCell id="fI4TgQmks6pxzs4s7WWF-5" value="Unternehmer" style="shape=umlActor;verticalLabelPosition=bottom;verticalAlign=top;html=1;" parent="1" vertex="1">
          <mxGeometry x="280" y="440" width="30" height="60" as="geometry" />
        </mxCell>
        <mxCell id="SzQzMrN-KdYhucgNmKku-4" style="edgeStyle=none;rounded=0;orthogonalLoop=1;jettySize=auto;html=1;entryX=0;entryY=0.5;entryDx=0;entryDy=0;endArrow=none;endFill=0;" edge="1" parent="1" target="fI4TgQmks6pxzs4s7WWF-11">
          <mxGeometry relative="1" as="geometry">
            <mxPoint x="190" y="350" as="sourcePoint" />
          </mxGeometry>
        </mxCell>
        <mxCell id="fI4TgQmks6pxzs4s7WWF-6" value="Benutzer" style="shape=umlActor;verticalLabelPosition=bottom;verticalAlign=top;html=1;" parent="1" vertex="1">
          <mxGeometry x="150" y="320" width="30" height="60" as="geometry" />
        </mxCell>
        <mxCell id="fI4TgQmks6pxzs4s7WWF-16" style="rounded=0;orthogonalLoop=1;jettySize=auto;html=1;endArrow=block;endFill=0;endSize=20;" parent="1" edge="1">
          <mxGeometry relative="1" as="geometry">
            <mxPoint x="260" y="440" as="sourcePoint" />
            <mxPoint x="200" y="380" as="targetPoint" />
          </mxGeometry>
        </mxCell>
        <mxCell id="fI4TgQmks6pxzs4s7WWF-8" value="Studierender" style="shape=umlActor;verticalLabelPosition=bottom;verticalAlign=top;html=1;" parent="1" vertex="1">
          <mxGeometry x="280" y="160" width="30" height="60" as="geometry" />
        </mxCell>
        <mxCell id="SzQzMrN-KdYhucgNmKku-1" style="rounded=0;orthogonalLoop=1;jettySize=auto;html=1;endArrow=block;endFill=0;endSize=20;" edge="1" parent="1">
          <mxGeometry relative="1" as="geometry">
            <mxPoint x="260" y="250" as="sourcePoint" />
            <mxPoint x="200" y="320" as="targetPoint" />
          </mxGeometry>
        </mxCell>
        <mxCell id="SzQzMrN-KdYhucgNmKku-8" style="edgeStyle=none;rounded=0;orthogonalLoop=1;jettySize=auto;html=1;entryX=0;entryY=0.5;entryDx=0;entryDy=0;endArrow=classicThin;endFill=1;" edge="1" parent="1" target="SzQzMrN-KdYhucgNmKku-7">
          <mxGeometry relative="1" as="geometry">
            <mxPoint x="320" y="485" as="sourcePoint" />
            <mxPoint x="410" y="485" as="targetPoint" />
          </mxGeometry>
        </mxCell>
        <mxCell id="SzQzMrN-KdYhucgNmKku-10" style="edgeStyle=none;rounded=0;orthogonalLoop=1;jettySize=auto;html=1;entryX=0;entryY=0.5;entryDx=0;entryDy=0;endArrow=none;endFill=0;" edge="1" parent="1" target="SzQzMrN-KdYhucgNmKku-9">
          <mxGeometry relative="1" as="geometry">
            <mxPoint x="320" y="470" as="sourcePoint" />
            <mxPoint x="450" y="535" as="targetPoint" />
          </mxGeometry>
        </mxCell>
        <mxCell id="SzQzMrN-KdYhucgNmKku-41" style="edgeStyle=none;rounded=0;orthogonalLoop=1;jettySize=auto;html=1;exitX=0;exitY=0.5;exitDx=0;exitDy=0;entryX=1;entryY=0;entryDx=0;entryDy=0;" edge="1" parent="1" source="SzQzMrN-KdYhucgNmKku-14" target="fI4TgQmks6pxzs4s7WWF-10">
          <mxGeometry relative="1" as="geometry" />
        </mxCell>
        <mxCell id="SzQzMrN-KdYhucgNmKku-14" value="" style="swimlane;startSize=0;" vertex="1" parent="1">
          <mxGeometry x="880" y="80" width="200" height="80" as="geometry" />
        </mxCell>
        <mxCell id="SzQzMrN-KdYhucgNmKku-16" value="Studenteninformationssystem" style="text;html=1;align=center;verticalAlign=middle;resizable=0;points=[];autosize=1;strokeColor=none;fillColor=none;" vertex="1" parent="SzQzMrN-KdYhucgNmKku-14">
          <mxGeometry x="10" y="10" width="180" height="30" as="geometry" />
        </mxCell>
      </root>
    </mxGraphModel>
  </diagram>
</mxfile>
